<svg xmlns="http://www.w3.org/2000/svg"><symbol id="the-coffee-spot" viewBox="0 0 350.1 205.5"><path fill="#67381b" d="M0 0h350.1v205.5H0z" opacity=".75"/><path fill="#fff" d="M17.4 115.7c1.5-2.5 3.7-3.3 6.7-3.3h99.3c4.2 0 5.6 1.2 5.8 5.5s.6 5.9-.4 8.8c-.3.8-.8 1.9 1.1 1.7 8.7-.7 17.2 4.5 17.3 14 0 .2-.7 9.5-2.5 12.2-3.9 6.4-10 9-17.2 9.4-5.2.3-10.8.4-14.4 4.8a77.9 77.9 0 0 1-7.6 7.6c-1.3 1.1-3.2 1.6-4.3 3.5h23.4c.8 0 2.1-.6 2.5.7s-.3 2-1.1 2.9a21.7 21.7 0 0 1-9 5.6c-9.6 3.3-19.5 4.2-29.5 4.7H53.2c-5.4.2-10.6-.9-15.8-2.1s-11.5-3.1-16.2-7c-1.4-1.1-2.4-2.5-1.7-4.3s2.4-1.2 3.7-1.2h22.9c-2.8-2.4-5.6-4.2-7.8-6.5-9.6-9.8-15.4-21.7-18.3-35.1-1-4.6-1.8-9.3-2.6-13.9zm16.2 29.9c7.2 19.6 23.2 31.5 42.5 30.8s32.8-15.4 37.7-30.8zM73.3 123H30.9c-1.8 0-3.5-.1-2.9 2.5s1.3 6.1 1.9 9.2 1.3 2.2 3 2.2h81.5c1.8 0 2.9-.3 3.1-2.4s.8-5.6 1.2-8.4-.5-3.2-3-3.1zm48.9 30.2c4.6.7 8.2-.5 11.7-2.4s3.2-4 3.1-6.5a5.4 5.4 0 0 0-3.9-5.1c-2.4-.7-4.2.7-5.6 2.5-2.6 3.4-3.8 7.4-5.3 11.5zM63.4 34.4c4 4.3 7.9 8.5 9.3 14.4s1.3 10.6-1.4 15.3a39.6 39.6 0 0 0-5.9 23.4v2.7c-4.5-4.3-7.3-8.7-8.6-14.1s.5-12.2 3.6-17.5c4.4-7.9 4.8-15.8 1.7-24.2zm20.4 71.1c-8.4-5.7-12.2-18.7-8.7-27.9 1.8-4.5 4.7-8.5 6.1-13.3 2-6.6 1.4-13.1-.8-20.3a23.3 23.3 0 0 1 8.1 8.5c5.5 9.5 5.6 18.9-.4 28.4a31.1 31.1 0 0 0-4.2 15.3c-.2 3-.1 6.1-.1 9.3zm39.2-78v10.6c0 3.3 1.3 4.7 4.2 4.7h2.3V50h-3.1c-8.1 0-11.3-3.7-11.3-11.7V27.5h-3.7V20h3.7v-6.5h7.9V20h6.5v7.5zm34.8 2.5v20h-7.9V30.7c0-2.9-1.3-4.4-3.9-4.4s-4 1.6-4 4.4v16.4h-8V10.2h8v10.2a11 11 0 0 1 5.6-1.6c6.5 0 10.2 4.1 10.2 11.2zm12 4.6v2.6c0 3.7 1.6 5.6 4.8 5.6s4.3-1.7 4.7-5.1h7.9c-.6 8.3-4.9 12.3-12.7 12.3s-12.6-4.9-12.6-12.7v-8.7c0-7.8 4.8-12.7 12.6-12.7s12.7 4.6 12.7 12.3v6.4zm0-6.4v.5h9.5v-1c0-3.3-1.7-5.1-4.7-5.1s-4.8 1.9-4.8 5.6zm-65.7 52.7v-7.5c0-12 7.4-19.5 19.4-19.5s18.6 6.6 19.4 19.4h-12.1c-.6-5.4-2.4-7.8-7.2-7.8s-7.4 2.9-7.4 8.7v6.5c0 5.7 2.5 8.6 7.4 8.6s6.6-2.5 7.2-7.7h12.1c-.8 12.5-6.9 18.8-19.4 18.8s-19.4-7.5-19.4-19.5zm44.1-1.5v-4.5c0-12.3 7.7-19.5 19.5-19.5s19.5 7.2 19.5 19.5v4.5c0 12.3-7.7 19.5-19.5 19.5s-19.5-7.2-19.5-19.5zm26.8-.2v-3.5c0-5.8-2.7-8.7-7.3-8.7s-7.3 2.9-7.3 8.7v3.5c0 5.8 2.6 8.6 7.3 8.6s7.3-2.8 7.3-8.6zm60.6-17v1.7h8.6v11h-8.6v28.4h-12.2V74.9h-13.1v28.4H198V74.9h-5.7v-11h5.7v-4.4c0-11.7 5.8-17.4 17.6-17.4h3.3v11.6H216c-3.9 0-5.7 1.9-5.7 6.3v3.9h13.1v-2.2c0-11.7 5.7-17.4 17.5-17.4h3.3v11.6h-2.9c-3.9 0-5.7 1.9-5.7 6.3zm26 17.5v3.9c0 5.8 2.5 8.7 7.4 8.7s6.7-2.5 7.2-7.8h12.2c-.9 12.8-7.5 18.8-19.5 18.8s-19.5-7.4-19.5-19.4V70.4c0-12 7.5-19.4 19.5-19.4s19.5 7 19.5 18.8v9.9zm0-9.9v.9h14.6v-1.6c0-5.2-2.6-7.9-7.2-7.9s-7.4 3-7.4 8.6zm44.4 9.1v3.3c0 5.7 2.5 8.6 7.4 8.6s6.7-2.5 7.2-7.8h12.2c-.9 12.8-7.5 18.9-19.5 18.9s-19.5-7.5-19.5-19.5v-12c0-12 7.5-19.4 19.5-19.4s19.5 7 19.5 18.8v9.1zm0-9.1h14.6V69c0-5.2-2.6-7.9-7.2-7.9s-7.4 3.1-7.4 8.7zm-134.2 67.8h11c.1 4.4 1.9 6.3 5.9 6.3s5.3-1.7 5.3-4.6-1.1-4-7-4.8c-10.2-1.5-14.5-5.6-14.5-13.9s6.2-14.5 15.6-14.5 15.7 5.5 15.7 15.1h-11c-.1-4-1.5-5.5-4.7-5.5s-4.8 1.6-4.8 4.5 1.3 3.6 6 4.3c11.1 1.5 15.5 5.5 15.5 14s-6.3 14.9-16.1 14.9-16.9-5.5-16.9-15.8zm74.2-8.4v2.6c0 10.9-6.2 17.6-16.3 17.6a16.8 16.8 0 0 1-7.7-1.8v15.8h-11v-57.3h11v7.3a16.8 16.8 0 0 1 7.7-1.8c10.1 0 16.3 6.7 16.3 17.6zm-10.9.7c0-5.1-2.3-7.9-6.6-7.9s-6.5 2.7-6.5 7.9v1.7c0 5.2 2.3 7.8 6.5 7.8s6.6-2.6 6.6-7.8zm15.9 1.9v-4.1c0-11 6.9-17.6 17.5-17.6s17.6 6.6 17.6 17.6v4.1c0 11.1-6.9 17.6-17.6 17.6s-17.5-6.5-17.5-17.6zm24.1-.2v-3.2c0-5.2-2.4-7.8-6.6-7.8s-6.6 2.6-6.6 7.8v3.2c0 5.2 2.4 7.8 6.6 7.8s6.6-2.6 6.6-7.8zm31.3-9.4V137c0 4.5 1.8 6.4 5.8 6.4h3.2v10H311c-11.2 0-15.7-5.1-15.7-16.2v-15h-5.1v-10.4h5.1v-9h11.1v9h9v10.4z"/></symbol></svg>