<svg xmlns="http://www.w3.org/2000/svg"><symbol id="white-logo-32" viewBox="0 0 32 30"><path fill="#fff" d="M11.8 0a5.4 5.4 0 0 1-.5 4.9c-1.7 2.6-.6 4.7 1 6.1a7.6 7.6 0 0 1 1.2-5s1.9-3-1.7-6zm3.9 1a6.1 6.1 0 0 1-.5 5.4c-1.9 2.9-.7 5.2 1 6.8a8.7 8.7 0 0 1 1.4-5.6s2.2-3.3-1.9-6.6zm10.2 16c.4-3.3-.3-3.3-.8-3.3h-22a1 1 0 0 0-1.1 1c.1 2.6 1 9.3 6.7 12.4h-6a.3.3 0 0 0-.2.5c.7.9 3.1 2.6 11.8 2.4 6.4-.2 9.7-.7 11.3-2.4.1-.2 0-.5-.2-.5h-5.7a9.7 9.7 0 0 0 2.7-2.1 3.9 3.9 0 0 1 2.8-1.1c.9 0 3.5-.1 4.5-2.5s-.6-4.9-3.8-4.4zm-11.5 9.5a9.6 9.6 0 0 1-9.1-6.3H23s-2.1 6.3-8.6 6.3zm9.1-7.9H4.7a11 11 0 0 1-.5-2.9H24a13.5 13.5 0 0 1-.5 2.9zm.9 3.4a19.1 19.1 0 0 1 1-2.3 1.6 1.6 0 0 1 1.5-.8c.5 0 1 .4 1 1.3S25.1 22 24.4 22z"/></symbol></svg>