<svg xmlns="http://www.w3.org/2000/svg" width="64" height="60" viewBox="0 0 64 60"><path fill="#fff" d="M22.6-.2a11 11 0 0 1-.9 9.8c-3.3 5.2-1.1 9.3 2 12.1a14.6 14.6 0 0 1 2.4-10S30 5.8 22.6-.2zm7.9 1.9a12.3 12.3 0 0 1-1.1 10.9c-3.7 5.8-1.3 10.3 2.2 13.5a17.3 17.3 0 0 1 2.6-11.2s4.4-6.5-3.7-13.2zm20.4 32c.9-6.6-.5-6.6-1.5-6.6H5.2a2 2 0 0 0-2 2.1c.2 5.2 1.9 18.5 13.2 24.8H4.5a.6.6 0 0 0-.5 1c1.4 1.7 6.3 5.2 23.6 4.7 13-.3 19.6-1.4 22.6-4.7a.6.6 0 0 0-.4-1H38.5a22 22 0 0 0 5.4-4.2c1.8-2.1 4-2.1 5.7-2.2s6.9-.1 8.9-5-1.2-9.9-7.6-8.9zM27.8 52.8c-13 0-17.5-11-18.1-12.7h35.4s-4.2 12.7-17.3 12.7zm18.4-15.9H8.6s-1.3-4-1.1-5.8h39.6a44 44 0 0 1-.9 5.8zm1.8 6.8a30.3 30.3 0 0 1 1.9-4.5 3.1 3.1 0 0 1 2.9-1.7c1.2.1 2.1.9 2.1 2.6-.1 3.4-5.6 3.6-6.9 3.6z"/></svg>