<svg xmlns="http://www.w3.org/2000/svg" width="256" height="293.1" viewBox="0 0 256 293.1"><path fill="#231f20" d="M89.2 0s10 23-4.2 45c-15.4 23.8-5.3 42.5 8.9 55.5 0 0-3.8-25 10.9-45.9 0 0 18.2-26.8-15.6-54.6zM125 18s11 25.6-4.7 50.1c-17.1 26.5-5.9 47.2 9.9 61.7 0 0-4.2-27.8 12.2-51.1 0 0 20.1-29.8-17.4-60.7zm93.8 155.7c3.8-30.3-2.5-30.3-7-30.3H9.4a9.5 9.5 0 0 0-9.4 9.9c1.1 23.8 8.9 84.6 60.7 113.4H6.3a2.8 2.8 0 0 0-2.2 4.6c6.2 8 28.7 23.6 108 21.6 59.3-1.5 89.5-6.5 103.5-21.7a2.6 2.6 0 0 0-1.9-4.3h-51.8s14.5-7.8 24.8-19.5c8.3-9.5 18.1-9.3 25.8-9.9s31.8-.7 40.8-23-5.2-45.4-34.5-40.8zM113 261.1c-59.8 0-80.1-50.2-83-57.8h161.9s-19.1 57.8-78.9 57.8zm84-72.7H24.9s-5.8-18.2-5-26.5h181.3s-2.1 22.6-4.2 26.5zm8.3 31a176.6 176.6 0 0 1 8.8-20.3 13.9 13.9 0 0 1 13.4-7.8c5.3.5 9.3 3.9 9.2 12-.2 15.4-25.4 16.1-31.4 16.1z"/></svg>