<svg xmlns="http://www.w3.org/2000/svg" width="64" height="60" viewBox="0 0 64 60"><path fill="#231f20" d="M23.5 0a11 11 0 0 1-.9 9.8c-3.3 5.2-1.1 9.3 2 12.1a14.9 14.9 0 0 1 2.3-10s4-5.8-3.4-11.9zm7.8 1.9a12.3 12.3 0 0 1-1 11c-3.7 5.7-1.3 10.3 2.2 13.4a17.1 17.1 0 0 1 2.6-11.1s4.4-6.5-3.8-13.3zm20.5 32c.9-6.6-.5-6.6-1.5-6.6H6.1a2 2 0 0 0-2 2.2c.2 5.2 1.9 18.4 13.2 24.7H5.4a.6.6 0 0 0-.5 1c1.4 1.8 6.3 5.2 23.6 4.8 13-.4 19.6-1.5 22.6-4.8.4-.3.1-.9-.4-.9H39.4a20.9 20.9 0 0 0 5.4-4.3c1.8-2.1 4-2 5.6-2.1s7-.2 9-5.1-1.2-9.9-7.6-8.9zM28.7 53c-13 0-17.5-10.9-18.1-12.6H46S41.8 53 28.7 53zm18.4-15.9H9.5s-1.3-3.9-1.1-5.8H48a41.7 41.7 0 0 1-.9 5.8zm1.8 6.8a33.5 33.5 0 0 1 1.9-4.4 3.1 3.1 0 0 1 2.9-1.7c1.2.1 2.1.8 2 2.6 0 3.4-5.5 3.5-6.8 3.5z"/></svg>