<svg xmlns="http://www.w3.org/2000/svg" width="16" height="15.7" viewBox="0 0 16 15.7"><path fill="#231f20" d="M5.5 0a3 3 0 0 1-.3 2.7c-1 1.4-.4 2.5.6 3.3a3.5 3.5 0 0 1 .7-2.7s1.2-1.6-1-3.3z"/><path fill="#231f20" d="M7.5.6a2.9 2.9 0 0 1-.3 3c-1.1 1.6-.4 2.8.7 3.7a4.3 4.3 0 0 1 .8-3.1S10 2.4 7.5.6zM13 9.1c.2-1.6-.2-1.6-.4-1.6H1.5A.5.5 0 0 0 1 8c.1 1.3.5 4.6 3.3 6.2H1.4c-.2 0-.2.2-.2.3s1.6 1.3 5.9 1.1 4.9-.3 5.7-1.1a.2.2 0 0 0-.1-.3H9.8a6.2 6.2 0 0 0 1.4-1c.5-.6 1-.5 1.4-.6a2.2 2.2 0 0 0 2.2-1.2A1.6 1.6 0 0 0 13 9.1zm-5.8 4.8a4.9 4.9 0 0 1-4.6-3.1h8.9a4.8 4.8 0 0 1-4.3 3.1zm4.6-4H2.4a6.1 6.1 0 0 1-.3-1.4H12a9.3 9.3 0 0 1-.2 1.4zm.4 1.7l.5-1.1a.8.8 0 0 1 .7-.4c.3 0 .5.2.5.7s-1.4.8-1.7.8z"/></svg>