<svg xmlns="http://www.w3.org/2000/svg"><symbol id="logo-32" viewBox="0 0 32 30"><path fill="#fff" d="M11.8 0a5.4 5.4 0 0 1-.5 4.9c-1.7 2.6-.6 4.7 1 6.1a7.6 7.6 0 0 1 1.2-5s1.9-3-1.7-6zm3.9 1a6.1 6.1 0 0 1-.5 5.4c-1.9 2.9-.7 5.2 1 6.8a8.7 8.7 0 0 1 1.4-5.6s2.2-3.3-1.9-6.6zm10.2 16c.4-3.3-.3-3.3-.8-3.3h-22a1 1 0 0 0-1.1 1c.1 2.6 1 9.3 6.7 12.4h-6a.3.3 0 0 0-.2.5c.7.9 3.1 2.6 11.8 2.4 6.4-.2 9.7-.7 11.3-2.4.1-.2 0-.5-.2-.5h-5.7a9.7 9.7 0 0 0 2.7-2.1 3.9 3.9 0 0 1 2.8-1.1c.9 0 3.5-.1 4.5-2.5s-.6-4.9-3.8-4.4zm-11.5 9.5a9.6 9.6 0 0 1-9.1-6.3H23s-2.1 6.3-8.6 6.3zm9.1-7.9H4.7a11 11 0 0 1-.5-2.9H24a13.5 13.5 0 0 1-.5 2.9zm.9 3.4a19.1 19.1 0 0 1 1-2.3 1.6 1.6 0 0 1 1.5-.8c.5 0 1 .4 1 1.3S25.1 22 24.4 22z"/></symbol><symbol id="logo-64" viewBox="0 0 64 60"><path fill="#fff" d="M23.5 0a11 11 0 0 1-.9 9.8c-3.3 5.2-1.1 9.3 2 12.1a14.9 14.9 0 0 1 2.3-10s4-5.8-3.4-11.9zm7.8 1.9a12.3 12.3 0 0 1-1 11c-3.7 5.7-1.3 10.3 2.2 13.4a17.1 17.1 0 0 1 2.6-11.1s4.4-6.5-3.8-13.3zm20.5 32c.9-6.6-.5-6.6-1.5-6.6H6.1a2 2 0 0 0-2 2.2c.2 5.2 1.9 18.4 13.2 24.7H5.4a.6.6 0 0 0-.5 1c1.4 1.8 6.3 5.2 23.6 4.8 13-.4 19.6-1.5 22.6-4.8.4-.3.1-.9-.4-.9H39.4a20.9 20.9 0 0 0 5.4-4.3c1.8-2.1 4-2 5.6-2.1s7-.2 9-5.1-1.2-9.9-7.6-8.9zM28.7 53c-13 0-17.5-10.9-18.1-12.6H46S41.8 53 28.7 53zm18.4-15.9H9.5s-1.3-3.9-1.1-5.8H48a41.7 41.7 0 0 1-.9 5.8zm1.8 6.8a33.5 33.5 0 0 1 1.9-4.4 3.1 3.1 0 0 1 2.9-1.7c1.2.1 2.1.8 2 2.6 0 3.4-5.5 3.5-6.8 3.5z"/></symbol><symbol id="logo-16" viewBox="0 0 16 15.7"><path fill="#fff" d="M5.5 0a3 3 0 0 1-.3 2.7c-1 1.4-.4 2.5.6 3.3a3.5 3.5 0 0 1 .7-2.7s1.2-1.6-1-3.3z"/><path fill="#fff" d="M7.5.6a2.9 2.9 0 0 1-.3 3c-1.1 1.6-.4 2.8.7 3.7a4.3 4.3 0 0 1 .8-3.1S10 2.4 7.5.6zM13 9.1c.2-1.6-.2-1.6-.4-1.6H1.5A.5.5 0 0 0 1 8c.1 1.3.5 4.6 3.3 6.2H1.4c-.2 0-.2.2-.2.3s1.6 1.3 5.9 1.1 4.9-.3 5.7-1.1a.2.2 0 0 0-.1-.3H9.8a6.2 6.2 0 0 0 1.4-1c.5-.6 1-.5 1.4-.6a2.2 2.2 0 0 0 2.2-1.2A1.6 1.6 0 0 0 13 9.1zm-5.8 4.8a4.9 4.9 0 0 1-4.6-3.1h8.9a4.8 4.8 0 0 1-4.3 3.1zm4.6-4H2.4a6.1 6.1 0 0 1-.3-1.4H12a9.3 9.3 0 0 1-.2 1.4zm.4 1.7l.5-1.1a.8.8 0 0 1 .7-.4c.3 0 .5.2.5.7s-1.4.8-1.7.8z"/></symbol><symbol id="logo-256" viewBox="0 0 256 293.1"><path fill="#fff" d="M89.2 0s10 23-4.2 45c-15.4 23.8-5.3 42.5 8.9 55.5 0 0-3.8-25 10.9-45.9 0 0 18.2-26.8-15.6-54.6zM125 18s11 25.6-4.7 50.1c-17.1 26.5-5.9 47.2 9.9 61.7 0 0-4.2-27.8 12.2-51.1 0 0 20.1-29.8-17.4-60.7zm93.8 155.7c3.8-30.3-2.5-30.3-7-30.3H9.4a9.5 9.5 0 0 0-9.4 9.9c1.1 23.8 8.9 84.6 60.7 113.4H6.3a2.8 2.8 0 0 0-2.2 4.6c6.2 8 28.7 23.6 108 21.6 59.3-1.5 89.5-6.5 103.5-21.7a2.6 2.6 0 0 0-1.9-4.3h-51.8s14.5-7.8 24.8-19.5c8.3-9.5 18.1-9.3 25.8-9.9s31.8-.7 40.8-23-5.2-45.4-34.5-40.8zM113 261.1c-59.8 0-80.1-50.2-83-57.8h161.9s-19.1 57.8-78.9 57.8zm84-72.7H24.9s-5.8-18.2-5-26.5h181.3s-2.1 22.6-4.2 26.5zm8.3 31a176.6 176.6 0 0 1 8.8-20.3 13.9 13.9 0 0 1 13.4-7.8c5.3.5 9.3 3.9 9.2 12-.2 15.4-25.4 16.1-31.4 16.1z"/></symbol><symbol id="logo-16" viewBox="0 0 16 15.7"><path fill="#fff" d="M5.5 0a3 3 0 0 1-.3 2.7c-1 1.4-.4 2.5.6 3.3a3.5 3.5 0 0 1 .7-2.7s1.2-1.6-1-3.3z"/><path fill="#fff" d="M7.5.6a2.9 2.9 0 0 1-.3 3c-1.1 1.6-.4 2.8.7 3.7a4.3 4.3 0 0 1 .8-3.1S10 2.4 7.5.6zM13 9.1c.2-1.6-.2-1.6-.4-1.6H1.5A.5.5 0 0 0 1 8c.1 1.3.5 4.6 3.3 6.2H1.4c-.2 0-.2.2-.2.3s1.6 1.3 5.9 1.1 4.9-.3 5.7-1.1a.2.2 0 0 0-.1-.3H9.8a6.2 6.2 0 0 0 1.4-1c.5-.6 1-.5 1.4-.6a2.2 2.2 0 0 0 2.2-1.2A1.6 1.6 0 0 0 13 9.1zm-5.8 4.8a4.9 4.9 0 0 1-4.6-3.1h8.9a4.8 4.8 0 0 1-4.3 3.1zm4.6-4H2.4a6.1 6.1 0 0 1-.3-1.4H12a9.3 9.3 0 0 1-.2 1.4zm.4 1.7l.5-1.1a.8.8 0 0 1 .7-.4c.3 0 .5.2.5.7s-1.4.8-1.7.8z"/></symbol><symbol id="logo-64" viewBox="0 0 64 60"><path fill="#fff" d="M23.5 0a11 11 0 0 1-.9 9.8c-3.3 5.2-1.1 9.3 2 12.1a14.9 14.9 0 0 1 2.3-10s4-5.8-3.4-11.9zm7.8 1.9a12.3 12.3 0 0 1-1 11c-3.7 5.7-1.3 10.3 2.2 13.4a17.1 17.1 0 0 1 2.6-11.1s4.4-6.5-3.8-13.3zm20.5 32c.9-6.6-.5-6.6-1.5-6.6H6.1a2 2 0 0 0-2 2.2c.2 5.2 1.9 18.4 13.2 24.7H5.4a.6.6 0 0 0-.5 1c1.4 1.8 6.3 5.2 23.6 4.8 13-.4 19.6-1.5 22.6-4.8.4-.3.1-.9-.4-.9H39.4a20.9 20.9 0 0 0 5.4-4.3c1.8-2.1 4-2 5.6-2.1s7-.2 9-5.1-1.2-9.9-7.6-8.9zM28.7 53c-13 0-17.5-10.9-18.1-12.6H46S41.8 53 28.7 53zm18.4-15.9H9.5s-1.3-3.9-1.1-5.8H48a41.7 41.7 0 0 1-.9 5.8zm1.8 6.8a33.5 33.5 0 0 1 1.9-4.4 3.1 3.1 0 0 1 2.9-1.7c1.2.1 2.1.8 2 2.6 0 3.4-5.5 3.5-6.8 3.5z"/></symbol><symbol id="logo-32" viewBox="0 0 32 30"><path fill="#fff" d="M11.8 0a5.4 5.4 0 0 1-.5 4.9c-1.7 2.6-.6 4.7 1 6.1a7.6 7.6 0 0 1 1.2-5s1.9-3-1.7-6zm3.9 1a6.1 6.1 0 0 1-.5 5.4c-1.9 2.9-.7 5.2 1 6.8a8.7 8.7 0 0 1 1.4-5.6s2.2-3.3-1.9-6.6zm10.2 16c.4-3.3-.3-3.3-.8-3.3h-22a1 1 0 0 0-1.1 1c.1 2.6 1 9.3 6.7 12.4h-6a.3.3 0 0 0-.2.5c.7.9 3.1 2.6 11.8 2.4 6.4-.2 9.7-.7 11.3-2.4.1-.2 0-.5-.2-.5h-5.7a9.7 9.7 0 0 0 2.7-2.1 3.9 3.9 0 0 1 2.8-1.1c.9 0 3.5-.1 4.5-2.5s-.6-4.9-3.8-4.4zm-11.5 9.5a9.6 9.6 0 0 1-9.1-6.3H23s-2.1 6.3-8.6 6.3zm9.1-7.9H4.7a11 11 0 0 1-.5-2.9H24a13.5 13.5 0 0 1-.5 2.9zm.9 3.4a19.1 19.1 0 0 1 1-2.3 1.6 1.6 0 0 1 1.5-.8c.5 0 1 .4 1 1.3S25.1 22 24.4 22z"/></symbol><symbol id="logo-256" viewBox="0 0 256 293.1"><path fill="#fff" d="M89.2 0s10 23-4.2 45c-15.4 23.8-5.3 42.5 8.9 55.5 0 0-3.8-25 10.9-45.9 0 0 18.2-26.8-15.6-54.6zM125 18s11 25.6-4.7 50.1c-17.1 26.5-5.9 47.2 9.9 61.7 0 0-4.2-27.8 12.2-51.1 0 0 20.1-29.8-17.4-60.7zm93.8 155.7c3.8-30.3-2.5-30.3-7-30.3H9.4a9.5 9.5 0 0 0-9.4 9.9c1.1 23.8 8.9 84.6 60.7 113.4H6.3a2.8 2.8 0 0 0-2.2 4.6c6.2 8 28.7 23.6 108 21.6 59.3-1.5 89.5-6.5 103.5-21.7a2.6 2.6 0 0 0-1.9-4.3h-51.8s14.5-7.8 24.8-19.5c8.3-9.5 18.1-9.3 25.8-9.9s31.8-.7 40.8-23-5.2-45.4-34.5-40.8zM113 261.1c-59.8 0-80.1-50.2-83-57.8h161.9s-19.1 57.8-78.9 57.8zm84-72.7H24.9s-5.8-18.2-5-26.5h181.3s-2.1 22.6-4.2 26.5zm8.3 31a176.6 176.6 0 0 1 8.8-20.3 13.9 13.9 0 0 1 13.4-7.8c5.3.5 9.3 3.9 9.2 12-.2 15.4-25.4 16.1-31.4 16.1z"/></symbol></svg>